<?xml version="1.0" encoding="utf-8"?>
<!-- Generator: Adobe Illustrator 22.1.0, SVG Export Plug-In . SVG Version: 6.00 Build 0)  -->
<svg version="1.1" id="Camada_1" xmlns="http://www.w3.org/2000/svg" xmlns:xlink="http://www.w3.org/1999/xlink" x="0px" y="0px"
	 viewBox="0 0 512 512" style="enable-background:new 0 0 512 512;" xml:space="preserve">
<style type="text/css">
	.st0{fill:#E43A2C;stroke:#FFFFFF;stroke-width:22;stroke-miterlimit:10;}
	.st1{fill:#FFFFFF;}
</style>
<path class="st0" d="M382,253.5L382,253.5l-0.4-0.8c-1.7-3.4-3.6-6.7-5.6-9.9L317.7,139l-41.4-73.1c-8.9-15.7-31.4-15.7-40.3,0
	L194.6,139l-58.3,103.8c-2,3.2-3.8,6.5-5.6,9.9l-0.5,0.9l0,0c-10.4,20.7-15.9,44.3-14.8,69.4c3.2,74.2,64.7,133.8,139,134.6
	C333,458.4,397,395,397,316.6C397,293.9,391.5,272.5,382,253.5z"/>
<circle class="st1" cx="256" cy="327" r="52"/>
</svg>
