<?xml version="1.0" encoding="utf-8"?>
<!-- Generator: Adobe Illustrator 22.1.0, SVG Export Plug-In . SVG Version: 6.00 Build 0)  -->
<svg version="1.1" id="Capa_1" xmlns="http://www.w3.org/2000/svg" xmlns:xlink="http://www.w3.org/1999/xlink" x="0px" y="0px"
	 viewBox="0 0 512 512" style="enable-background:new 0 0 512 512;" xml:space="preserve">
<style type="text/css">
	.st0{fill:#383838;}
</style>
<g>
	<g>
		<path class="st0" d="M187.1,308.7c-0.1-0.6-0.3-1.3-0.6-1.9c-0.3-0.6-0.6-1.2-0.9-1.7c-0.4-0.5-0.8-1.1-1.3-1.5
			c-2.3-2.3-5.8-3.4-9-2.7c-0.6,0.1-1.3,0.3-1.9,0.6c-0.6,0.3-1.2,0.6-1.7,0.9c-0.6,0.4-1.1,0.8-1.5,1.2s-0.9,1-1.2,1.5
			c-0.4,0.5-0.7,1.1-0.9,1.7c-0.3,0.6-0.4,1.2-0.6,1.9s-0.2,1.3-0.2,2c0,0.6,0.1,1.3,0.2,2c0.1,0.6,0.3,1.3,0.6,1.9
			c0.3,0.6,0.6,1.2,0.9,1.7c0.4,0.5,0.8,1.1,1.2,1.5s1,0.9,1.5,1.3c0.5,0.4,1.1,0.7,1.7,0.9c0.6,0.3,1.2,0.4,1.9,0.6
			s1.3,0.2,1.9,0.2c2.6,0,5.2-1.1,7.1-2.9c0.5-0.5,0.9-1,1.3-1.5c0.4-0.5,0.7-1.1,0.9-1.7c0.3-0.6,0.4-1.2,0.6-1.9
			c0.1-0.6,0.2-1.3,0.2-2S187.2,309.3,187.1,308.7z"/>
	</g>
</g>
<g>
	<g>
		<path class="st0" d="M502,481.4h-20.7V374.4v-43.9c0-16.5-13.4-29.9-29.9-29.9h-17.1v-60.5V202c0-16.5-13.4-29.9-29.9-29.9h-30.7
			v-29c6.9-1.7,13.4-5.3,18.7-10.6c12.3-12.3,15.4-31.1,7.7-46.7l-27.4-55.6c-1.7-3.4-5.2-5.6-9-5.6s-7.3,2.2-9,5.6l-27.4,55.6
			c-7.7,15.6-4.6,34.4,7.7,46.7c5.4,5.4,11.9,8.9,18.7,10.6v29H266v-43c6.9-1.7,13.4-5.3,18.7-10.6c12.3-12.3,15.4-31.1,7.7-46.7
			L265,16.2c-1.7-3.4-5.2-5.6-9-5.6s-7.3,2.2-9,5.6l-27.4,55.6c-7.7,15.6-4.6,34.4,7.7,46.7c5.4,5.4,11.9,8.9,18.7,10.6v43h-87.6
			v-29c7-1.8,13.5-5.4,18.7-10.7c12.3-12.3,15.4-31.1,7.7-46.7l-27.4-55.6c-1.7-3.4-5.2-5.6-9-5.6s-7.3,2.2-9,5.6l-27.4,55.6
			c-7.7,15.6-4.6,34.4,7.7,46.7c5.3,5.3,11.7,8.9,18.7,10.7v29h-30.7c-16.5,0-29.9,13.4-29.9,29.9v38.1v60.5H60.6
			c-16.5,0-29.9,13.4-29.9,29.9v43.9v106.9H10c-5.5,0-10,4.5-10,10s4.5,10,10,10h30.7h430.6H502c5.5,0,10-4.5,10-10
			S507.5,481.4,502,481.4z M349.1,118.3c-6.2-6.2-7.8-15.8-3.9-23.7l18.5-37.4l18.5,37.4c3.9,7.9,2.3,17.4-3.9,23.7
			c-1.4,1.4-2.9,2.5-4.6,3.4c-6.2,3.4-13.8,3.4-20,0C352,120.8,350.5,119.7,349.1,118.3z M241.4,104.3c-6.2-6.2-7.8-15.8-3.9-23.7
			L256,43.2l18.5,37.4c3.9,7.9,2.3,17.4-3.9,23.7c-1.4,1.4-2.9,2.5-4.6,3.4c-6.2,3.4-13.8,3.4-20,0
			C244.4,106.8,242.8,105.7,241.4,104.3z M133.8,118.3c-6.2-6.2-7.8-15.8-3.9-23.7l18.5-37.4l18.5,37.4c3.9,7.9,2.3,17.4-3.9,23.7
			c-1.4,1.4-2.9,2.5-4.6,3.4c-6.2,3.4-13.8,3.4-20,0C136.7,120.8,135.2,119.7,133.8,118.3z M107.7,192.1h296.7
			c5.5,0,9.9,4.5,9.9,9.9v31.4c-4.4,1.4-9.2,2-14.8,2c-14.9,0-21.7-4.5-30.3-10.3c-9.6-6.4-20.5-13.6-41.4-13.6
			c-21,0-31.8,7.2-41.4,13.6c-8.6,5.7-15.4,10.3-30.3,10.3c-14.9,0-21.7-4.5-30.3-10.3c-9.6-6.4-20.5-13.6-41.4-13.6
			c-21,0-31.8,7.2-41.4,13.6c-8.6,5.7-15.4,10.3-30.3,10.3c-5.6,0-10.3-0.6-14.8-2V202h0C97.7,196.5,102.2,192.1,107.7,192.1z
			 M461.3,481.4H50.7v-96.1c8.5,1.6,13.9,5.2,20.3,9.4c9.6,6.4,20.5,13.6,41.4,13.6c21,0,31.8-7.2,41.4-13.6
			c8.6-5.7,15.4-10.3,30.3-10.3c14.9,0,21.7,4.5,30.3,10.3c9.6,6.4,20.5,13.6,41.4,13.6c21,0,31.8-7.2,41.4-13.6
			c8.6-5.7,15.4-10.3,30.3-10.3c14.9,0,21.7,4.5,30.3,10.3c9.6,6.4,20.5,13.6,41.4,13.6c21,0,31.8-7.2,41.4-13.6
			c6.4-4.3,11.8-7.9,20.3-9.4V481.4z M461.3,365c-14.7,1.9-23.5,7.7-31.4,13c-8.6,5.7-15.4,10.3-30.3,10.3s-21.7-4.5-30.3-10.3
			c-9.6-6.4-20.5-13.6-41.4-13.6c-21,0-31.8,7.2-41.4,13.6c-8.6,5.7-15.4,10.3-30.3,10.3c-14.9,0-21.7-4.5-30.3-10.3
			c-9.6-6.4-20.5-13.6-41.4-13.6c-21,0-31.8,7.2-41.4,13.6c-8.6,5.7-15.4,10.3-30.3,10.3c-14.9,0-21.7-4.5-30.3-10.3
			c-7.9-5.3-16.7-11.2-31.4-13v-34.5c0-5.5,4.5-9.9,9.9-9.9h76.7c5.5,0,10-4.5,10-10s-4.5-10-10-10H97.7V254
			c4.6,0.9,9.5,1.4,14.8,1.4c21,0,31.8-7.2,41.4-13.6c8.6-5.7,15.4-10.3,30.3-10.3c14.9,0,21.7,4.5,30.3,10.3
			c9.6,6.4,20.5,13.6,41.4,13.6s31.8-7.2,41.4-13.6c8.6-5.7,15.4-10.3,30.3-10.3c14.9,0,21.7,4.5,30.3,10.3
			c9.6,6.4,20.5,13.6,41.4,13.6c5.3,0,10.2-0.5,14.8-1.4v46.6H217.1c-5.5,0-10,4.5-10,10s4.5,10,10,10h234.2c5.5,0,9.9,4.5,9.9,9.9
			L461.3,365L461.3,365z"/>
	</g>
</g>
<g>
	<g>
		<path class="st0" d="M97.5,456.5c-0.1-0.6-0.3-1.3-0.6-1.9s-0.6-1.2-0.9-1.7c-0.4-0.5-0.8-1-1.3-1.5c-0.5-0.5-1-0.9-1.5-1.2
			c-0.5-0.4-1.1-0.7-1.7-0.9s-1.2-0.4-1.9-0.6c-3.3-0.6-6.7,0.4-9,2.7c-0.5,0.5-0.9,1-1.2,1.5c-0.4,0.5-0.7,1.1-0.9,1.7
			s-0.4,1.2-0.6,1.9c-0.1,0.6-0.2,1.3-0.2,2c0,0.6,0.1,1.3,0.2,2c0.1,0.6,0.3,1.3,0.6,1.9s0.6,1.2,0.9,1.7c0.4,0.5,0.8,1,1.2,1.5
			c1.9,1.9,4.4,2.9,7.1,2.9c0.7,0,1.3-0.1,1.9-0.2c0.6-0.1,1.3-0.3,1.9-0.6c0.6-0.3,1.2-0.6,1.7-0.9c0.6-0.4,1.1-0.8,1.5-1.2
			c0.5-0.5,0.9-1,1.3-1.5c0.4-0.5,0.7-1.1,0.9-1.7s0.4-1.2,0.6-1.9c0.1-0.6,0.2-1.3,0.2-2C97.7,457.8,97.7,457.2,97.5,456.5z"/>
	</g>
</g>
<g>
	<g>
		<path class="st0" d="M205,426.6c-0.1-0.6-0.3-1.3-0.6-1.9s-0.6-1.2-0.9-1.7c-0.4-0.5-0.8-1.1-1.3-1.5s-1-0.9-1.5-1.2
			c-0.5-0.4-1.1-0.7-1.7-0.9c-0.6-0.3-1.2-0.4-1.9-0.6c-1.3-0.3-2.6-0.3-3.9,0c-0.6,0.1-1.3,0.3-1.9,0.6c-0.6,0.3-1.2,0.6-1.7,0.9
			c-0.6,0.4-1.1,0.8-1.5,1.2s-0.9,1-1.2,1.5c-0.4,0.5-0.7,1.1-0.9,1.7s-0.4,1.2-0.6,1.9c-0.1,0.6-0.2,1.3-0.2,2c0,0.7,0.1,1.3,0.2,2
			c0.1,0.6,0.3,1.3,0.6,1.9s0.6,1.2,0.9,1.7c0.4,0.5,0.8,1.1,1.2,1.5s1,0.9,1.5,1.2c0.5,0.4,1.1,0.7,1.7,0.9
			c0.6,0.3,1.2,0.4,1.9,0.6s1.3,0.2,1.9,0.2s1.3-0.1,2-0.2c0.6-0.1,1.3-0.3,1.9-0.6c0.6-0.3,1.2-0.6,1.7-0.9
			c0.6-0.4,1.1-0.8,1.5-1.2s0.9-1,1.3-1.5c0.4-0.5,0.7-1.1,0.9-1.7s0.4-1.2,0.6-1.9c0.1-0.6,0.2-1.3,0.2-2
			C205.2,427.9,205.1,427.3,205,426.6z"/>
	</g>
</g>
<g>
	<g>
		<path class="st0" d="M320.6,456.5c-0.1-0.6-0.3-1.3-0.6-1.9s-0.6-1.2-0.9-1.7c-0.4-0.5-0.8-1-1.2-1.5c-0.5-0.5-1-0.9-1.5-1.2
			c-0.5-0.4-1.1-0.7-1.7-0.9c-0.6-0.3-1.2-0.4-1.9-0.6c-1.3-0.3-2.6-0.3-3.9,0c-0.6,0.1-1.3,0.3-1.9,0.6c-0.6,0.3-1.2,0.6-1.7,0.9
			c-0.5,0.4-1.1,0.8-1.5,1.2c-0.5,0.5-0.9,1-1.3,1.5c-0.4,0.5-0.7,1.1-0.9,1.7s-0.4,1.2-0.6,1.9c-0.1,0.6-0.2,1.3-0.2,2
			c0,0.6,0.1,1.3,0.2,2c0.1,0.6,0.3,1.3,0.6,1.9s0.6,1.2,0.9,1.7c0.4,0.5,0.8,1.1,1.3,1.5s1,0.9,1.5,1.2c0.5,0.4,1.1,0.7,1.7,0.9
			c0.6,0.3,1.2,0.4,1.9,0.6c0.6,0.1,1.3,0.2,2,0.2c2.6,0,5.2-1.1,7.1-2.9c0.5-0.5,0.9-1,1.2-1.5c0.4-0.5,0.7-1.1,0.9-1.7
			s0.4-1.2,0.6-1.9c0.1-0.6,0.2-1.3,0.2-2C320.8,457.8,320.8,457.2,320.6,456.5z"/>
	</g>
</g>
<g>
	<g>
		<path class="st0" d="M434.1,432.6c-0.1-0.6-0.3-1.3-0.6-1.9s-0.6-1.2-0.9-1.7s-0.8-1.1-1.2-1.5c-1.9-1.9-4.4-2.9-7.1-2.9
			c-2.6,0-5.2,1.1-7.1,2.9c-0.5,0.5-0.9,1-1.2,1.5c-0.4,0.5-0.7,1.1-0.9,1.7s-0.4,1.2-0.6,1.9s-0.2,1.3-0.2,2c0,0.7,0.1,1.3,0.2,2
			c0.1,0.6,0.3,1.3,0.6,1.9s0.6,1.2,0.9,1.7c0.4,0.5,0.8,1.1,1.2,1.5c0.5,0.5,1,0.9,1.5,1.2c0.5,0.4,1.1,0.7,1.7,0.9
			s1.2,0.4,1.9,0.6c0.6,0.1,1.3,0.2,2,0.2c2.6,0,5.2-1.1,7.1-2.9c0.5-0.5,0.9-1,1.2-1.5c0.4-0.5,0.7-1.1,0.9-1.7
			c0.3-0.6,0.4-1.2,0.6-1.9c0.1-0.6,0.2-1.3,0.2-2C434.3,433.9,434.2,433.3,434.1,432.6z"/>
	</g>
</g>
<g>
	<g>
		<path class="st0" d="M334.6,269.2c-0.1-0.6-0.3-1.3-0.6-1.9c-0.3-0.6-0.6-1.2-0.9-1.7c-0.4-0.5-0.8-1.1-1.3-1.5
			c-0.5-0.5-1-0.9-1.5-1.3c-0.5-0.4-1.1-0.7-1.7-0.9c-0.6-0.3-1.2-0.4-1.9-0.6c-1.3-0.3-2.6-0.3-3.9,0c-0.6,0.1-1.3,0.3-1.9,0.6
			c-0.6,0.3-1.2,0.6-1.7,0.9c-0.5,0.4-1.1,0.8-1.5,1.3c-0.5,0.5-0.9,1-1.2,1.5c-0.4,0.5-0.7,1.1-0.9,1.7c-0.3,0.6-0.4,1.2-0.6,1.9
			c-0.1,0.6-0.2,1.3-0.2,2s0.1,1.3,0.2,2s0.3,1.3,0.6,1.9s0.6,1.2,0.9,1.7c0.4,0.5,0.8,1.1,1.2,1.5s1,0.9,1.5,1.2
			c0.5,0.4,1.1,0.7,1.7,0.9c0.6,0.3,1.2,0.4,1.9,0.6s1.3,0.2,2,0.2s1.3-0.1,2-0.2c0.6-0.1,1.3-0.3,1.9-0.6c0.6-0.3,1.2-0.6,1.7-0.9
			c0.5-0.4,1.1-0.8,1.5-1.2s0.9-1,1.3-1.5c0.4-0.5,0.7-1.1,0.9-1.7s0.4-1.2,0.6-1.9s0.2-1.3,0.2-2
			C334.8,270.5,334.7,269.8,334.6,269.2z"/>
	</g>
</g>
<g>
	<g>
		<path class="st0" d="M204,255.5c-0.1-0.6-0.3-1.3-0.6-1.9c-0.3-0.6-0.6-1.2-0.9-1.7c-0.4-0.5-0.8-1.1-1.2-1.5s-1-0.9-1.5-1.2
			c-0.6-0.4-1.1-0.7-1.7-0.9c-0.6-0.3-1.2-0.4-1.9-0.6c-1.3-0.3-2.6-0.3-3.9,0c-0.6,0.1-1.3,0.3-1.9,0.6s-1.2,0.6-1.7,0.9
			c-0.5,0.4-1.1,0.8-1.5,1.2c-0.5,0.5-0.9,1-1.2,1.5c-0.4,0.6-0.7,1.1-0.9,1.7c-0.3,0.6-0.4,1.2-0.6,1.9c-0.1,0.7-0.2,1.3-0.2,2
			c0,0.6,0.1,1.3,0.2,2c0.1,0.6,0.3,1.3,0.6,1.9s0.6,1.2,0.9,1.7c0.4,0.5,0.8,1,1.2,1.5c0.5,0.5,1,0.9,1.5,1.2
			c0.6,0.4,1.1,0.7,1.7,0.9s1.2,0.4,1.9,0.6c0.6,0.1,1.3,0.2,2,0.2c0.6,0,1.3-0.1,1.9-0.2s1.3-0.3,1.9-0.6c0.6-0.3,1.2-0.6,1.7-0.9
			c0.5-0.4,1.1-0.8,1.5-1.2c0.5-0.5,0.9-1,1.2-1.5c0.4-0.5,0.7-1.1,0.9-1.7s0.4-1.2,0.6-1.9c0.1-0.6,0.2-1.3,0.2-2
			C204.2,256.8,204.1,256.2,204,255.5z"/>
	</g>
</g>
</svg>
