<?xml version="1.0" encoding="utf-8"?>
<!-- Generator: Adobe Illustrator 22.1.0, SVG Export Plug-In . SVG Version: 6.00 Build 0)  -->
<svg version="1.1" id="Capa_1" xmlns="http://www.w3.org/2000/svg" xmlns:xlink="http://www.w3.org/1999/xlink" x="0px" y="0px"
	 viewBox="0 0 307.1 307.1" style="enable-background:new 0 0 307.1 307.1;" xml:space="preserve">
<style type="text/css">
	.st0{fill:#383838;}
</style>
<g>
	<path class="st0" d="M253.6,272.1c17.9-48.3,17.9-188.9,0-237.2l5.3-27.8c0.3-1.8-0.1-3.6-1.3-4.9C256.5,0.8,254.8,0,253,0H54.1
		c-1.8,0-3.5,0.8-4.6,2.2s-1.6,3.2-1.3,4.9L53.5,35c-17.9,48.3-17.9,188.9,0,237.2L48.2,300c-0.3,1.8,0.1,3.6,1.3,4.9
		c1.1,1.4,2.8,2.2,4.6,2.2H253c0,0,0,0,0,0c3.3,0,6-2.7,6-6c0-0.6-0.1-1.1-0.2-1.6L253.6,272.1z M245.8,12l-3.3,17.5H64.6L61.3,12
		H245.8z M63.9,41.5h179.4c15.8,46.9,15.8,177.2,0,224.1H63.9C48,218.7,48,88.4,63.9,41.5z M61.3,295.1l3.3-17.5h177.8l3.3,17.5
		H61.3z"/>
	<path class="st0" d="M90.8,201.6C90.8,201.6,90.8,201.6,90.8,201.6c0.2,0,0.3,0.1,0.4,0.1c0.5,0.1,0.9,0.1,1.5,0.1
		c4,0,10-1.8,19.4-4.7c9.1-2.8,19.5-6,26.2-6.4c0.7,0,1.3-0.1,2-0.1c5.5,0,11,1.3,16.8,2.6c7,1.6,14.9,3.5,24.3,3.5
		c7.7,0,26.8-1.4,39.3-14.4c7.4-7.7,10.9-17.8,10.4-30.1c-1.4-33.6-37.9-48.2-56.2-48.2c-27.8,0-43.3,22.9-48.8,37.9
		C88.6,147.3,76,177.6,76,185.6C76,194.2,81.7,200.3,90.8,201.6z M174.9,116c12.6,0,43.1,10.6,44.2,36.7c0.4,8.9-2,16.1-7,21.3
		c-9.6,10-25.9,10.7-30.6,10.7c-8,0-14.9-1.6-21.5-3.1c-6.2-1.4-12.6-2.9-19.5-2.9c-0.9,0-1.8,0-2.6,0.1c-5,0.3-11.1,1.7-17.3,3.4
		c9.7-13.7,15-30,15.9-33c0,0,0-0.1,0-0.1c0,0,0,0,0-0.1C136.7,147.6,146.1,116,174.9,116z M121.3,155
		c-5.7,13.7-16.4,32.8-29.4,34.7c-4-0.7-4-2.7-4-4C88.2,182.5,95.9,161.6,121.3,155z"/>
</g>
</svg>
