<?xml version="1.0" encoding="utf-8"?>
<!-- Generator: Adobe Illustrator 22.1.0, SVG Export Plug-In . SVG Version: 6.00 Build 0)  -->
<svg version="1.1" id="Camada_1" xmlns="http://www.w3.org/2000/svg" xmlns:xlink="http://www.w3.org/1999/xlink" x="0px" y="0px"
	 viewBox="0 0 512 512" style="enable-background:new 0 0 512 512;" xml:space="preserve">
<style type="text/css">
	.st0{fill:#383838;}
</style>
<path class="st0" d="M392,0H120c-16.5,0-30,13.5-30,30v452c0,16.5,13.5,30,30,30h272c16.5,0,30-13.5,30-30V30
	C422,13.5,408.5,0,392,0z M298.9,352.3h-67.3c-1.8,0-3.5,0.5-5.1,1.4l-63.8,37.5L110,372.6v-8.8l96.5-25.1c1.1-0.3,2.1-0.8,3.1-1.4
	l49.5-33.3H308c1.2,0,2.3-0.2,3.4-0.6l90.6-33.1v22.8L298.9,352.3z M402,246h-84V143h84V246z M194,317.5v3.8l-84,21.8V266h84V317.5z
	 M214,266h84v18h-42c-2,0-3.9,0.6-5.6,1.7L214,310.2V266z M318,266h37.5L318,279.7V266z M298,246h-84V143h84V246z M194,246h-84V143
	h84V246z M402,30v93h-84V20h74C397.5,20,402,24.5,402,30z M298,123h-84V20h84V123z M110,30c0-5.5,4.5-10,10-10h74v103h-84V30z
	 M392,492H120c-5.5,0-10-4.5-10-10v-88.2l50.3,17.8c1.1,0.4,2.2,0.6,3.3,0.6c1.8,0,3.5-0.5,5.1-1.4l65.5-38.5h67.3
	c1.8,0,3.5-0.5,5-1.3l47.2-27.1v68.5c0,5.5,4.5,10,10,10c5.5,0,10-4.5,10-10v-80l28.3-16.3V482C402,487.5,397.5,492,392,492z"/>
<path class="st0" d="M363.7,441c-2.6,0-5.2,1.1-7.1,2.9s-2.9,4.4-2.9,7.1s1.1,5.2,2.9,7.1c1.9,1.9,4.4,2.9,7.1,2.9
	c2.6,0,5.2-1.1,7.1-2.9c1.9-1.9,2.9-4.4,2.9-7.1s-1.1-5.2-2.9-7.1C368.9,442.1,366.3,441,363.7,441z"/>
</svg>
