<?xml version="1.0" encoding="utf-8"?>
<!-- Generator: Adobe Illustrator 22.1.0, SVG Export Plug-In . SVG Version: 6.00 Build 0)  -->
<svg version="1.1" id="Camada_1" xmlns="http://www.w3.org/2000/svg" xmlns:xlink="http://www.w3.org/1999/xlink" x="0px" y="0px"
	 viewBox="0 0 512 512" style="enable-background:new 0 0 512 512;" xml:space="preserve">
<style type="text/css">
	.st0{fill:#E43A2C;}
</style>
<path class="st0" d="M384.3,194.6C381.4,127.1,325.3,72.8,257.7,72c-71.5-0.8-129.8,56.9-129.8,128.2c0,20.7,4.9,40.2,13.6,57.5l0,0
	l0.4,0.8c1.6,3.1,3.3,6.1,5.1,9l53.1,94.5l37.7,66.6c8.1,14.3,28.6,14.3,36.7,0l37.7-66.6l53.1-94.5c1.8-2.9,3.5-6,5.1-9l0.4-0.8
	l0,0C380.3,238.9,385.3,217.4,384.3,194.6z M229.6,313.2c-6.3,0-11.4-5.2-11.4-11.5c0-6.3,5.2-11.4,11.5-11.4
	c6.3,0,11.4,5.2,11.4,11.5S236,313.2,229.6,313.2z M262.4,313.4c-6.3,0-11.4-5.2-11.4-11.5c0-6.3,5.2-11.4,11.5-11.4
	c6.3,0,11.4,5.2,11.4,11.5C273.9,308.4,268.7,313.5,262.4,313.4z M344.8,199.2c0,0.2,0,0.5,0,0.7c0,0.1,0,0.3,0,0.4
	c0,0.3-0.1,0.6-0.1,0.8c0,0.1,0,0.2,0,0.3c-0.1,0.3-0.2,0.6-0.3,1c0,0,0,0.1,0,0.1c-0.1,0.3-0.2,0.7-0.4,1c0,0,0,0,0,0
	c-0.2,0.4-0.4,0.9-0.6,1.3l-44.2,75.3c-1.8,4-5.9,6.7-10.5,6.7l-84.8-0.6c-6.3,0-11.5-5.2-11.4-11.6c0-6.3,5.2-11.5,11.6-11.4
	l78.1,0.5l31.3-53.4l-120.7-0.8c-2.9,0-5.5-1.1-7.5-2.8c-1.1-0.9-2-1.9-2.7-3.2l-12.8-22.6c-3.1-5.5-1.2-12.5,4.3-15.7
	c5.5-3.1,12.5-1.2,15.7,4.3l9.7,17.1l134.1,0.9c0.1,0,0.1,0,0.1,0c0.3,0,0.5,0,0.8,0c0.1,0,0.2,0,0.3,0c0.3,0,0.7,0.1,1,0.2
	c0,0,0,0,0.1,0c1.2,0.2,2.3,0.7,3.4,1.3c1.9,1.1,3.3,2.7,4.3,4.5c0,0,0,0.1,0.1,0.1c0.1,0.3,0.3,0.5,0.4,0.8c0,0.1,0.1,0.2,0.1,0.3
	c0.1,0.2,0.1,0.4,0.2,0.6c0.1,0.2,0.1,0.3,0.2,0.5c0,0.2,0.1,0.3,0.1,0.5c0,0.2,0.1,0.4,0.1,0.6c0,0.2,0,0.3,0.1,0.5
	c0,0.2,0.1,0.4,0.1,0.6c0,0.2,0,0.4,0,0.6c0,0.1,0,0.3,0,0.4C344.8,199.1,344.8,199.2,344.8,199.2z"/>
</svg>
