<svg height="511pt" viewBox="-34 0 511 511.79262" width="511pt" xmlns="http://www.w3.org/2000/svg"><path d="m5.433594 328.949219c3.949218 7.738281 7.398437 15.71875 10.332031 23.894531.90625 2.40625 1.851563 4.878906 2.878906 7.441406-6.351562 9.542969-9.757812 20.746094-9.796875 32.210938.082032 33.117187 26.957032 59.914062 60.074219 59.90625.777344 0 1.414063-.0625 2.140625-.085938 4.648438 10.253906 14.871094 16.832032 26.128906 16.808594h21.453125c.238281.363281.507813.707031.800781 1.023438l45.050782 38.316406c2.414062 2.140625 5.53125 3.324218 8.761718 3.328125 2.3125 0 4.589844-.585938 6.613282-1.707031l35.40625-20.097657c.066406.042969.101562.113281.160156.148438 19.625 13.171875 42.511719 20.667969 66.125 21.65625 9.257812 0 40.816406-1.410157 58.429688-19.558594 6.171874-6.347656 9.960937-14.628906 10.734374-23.449219 9.953126-1.175781 18.558594-7.484375 22.671876-16.625 34.332031-1.945312 61.386718-29.976562 62.113281-64.355468 0-14.222657-4.894531-28.007813-13.855469-39.050782l17.40625-14.386718c5.222656-4.175782 6.539062-11.578126 3.074219-17.296876l-52.054688-85.949218c26.414063-7.960938 44.734375-31.972656 45.429688-59.550782-.339844-23.136718-13.488281-44.171874-34.132813-54.613281v-29.269531c-.140625-15.671875-12.941406-28.269531-28.609375-28.160156h-26.359375c-6.070312-18.769532-21.3125-33.136719-40.40625-38.089844-19.09375-4.949219-39.394531.195312-53.820312 13.648438l-30.25-31.15625c-5.339844-5.210938-13.847656-5.246094-19.226563-.074219l-19.097656 19.667969c-5.96875-6.5625-13.800781-11.144532-22.441406-13.140626-11.105469-1.933593-22.503907 1.003907-31.292969 8.054688-5.679688 4.09375-11.132812 8.496094-16.332031 13.183594-4.839844 4.308594-5.460938 4.863281-9.164063 5.359375-8.949218 1.09375-17.25 5.226562-23.511718 11.707031-3.117188 3.21875-5.75 6.867188-7.824219 10.839844h-1.449219c-15.535156-.117188-28.277344 12.261718-28.613281 27.792968-8.636719-.59375-17.195313 1.976563-24.082031 7.226563-6.417969 5.726563-9.875 14.066406-9.386719 22.65625.390625 12.578125 2.820312 25.011719 7.195312 36.8125 4.265625 13.277344 6.492188 21.171875 2.898438 28.875-.246094.53125-.4375 1.085937-.570313 1.65625-2.78125 15.121094-2.28125 30.660156 1.46875 45.570313l-7.425781 6.988281c-4.386719 4.101562-5.492187 10.632812-2.695313 15.949219l9.660157 18.097656c-15.464844 12.917968-26.554688 34.03125-14.609375 57.796875zm20.480468 63.546875c-.019531-9.453125 3.160157-18.632813 9.019532-26.050782.363281-.445312.699218-.910156 1.007812-1.390624 6.640625-7.910157 15.910156-13.164063 26.109375-14.796876l6.527344 12.269532v72.773437c-23.550781-.160156-42.582031-19.253906-42.664063-42.804687zm12.96875-122.152344c-.101562-.253906-.214843-.5-.347656-.734375l-11.699218-22 8.292968-7.800781c.304688-.265625.589844-.550782.855469-.851563l32.59375-30.59375v117.820313zm134.828126 223.570312-29.132813-24.789062h72.847656zm107.851562.8125c-17.332031-.675781-34.222656-5.660156-49.140625-14.507812l16.125-9.15625c.863281-.507812 1.628906-1.164062 2.261719-1.9375h82.773437c-.765625 4.242188-2.804687 8.148438-5.84375 11.207031-10.285156 10.589844-30.59375 14.394531-46.175781 14.394531zm136.882812-106.921874c-.617187 24.058593-18.773437 44.027343-42.664062 46.933593v-48.054687l32.734375-27.066406c6.414063 7.996093 9.917969 17.933593 9.929687 28.1875zm-42.664062-23.261719v-124.160157l50.082031 82.773438zm42.664062-192.972657c-.855468 21.664063-16.390624 39.945313-37.628906 44.285157l-5.035156-8.351563v-54.265625c10.492188-1.070312 19.542969-7.832031 23.550781-17.585937 11.78125 8.195312 18.898438 21.566406 19.113281 35.917968zm-126.976562-134.914062c15.550781.058594 29.726562 8.917969 36.59375 22.871094h-52.121094l-11.886718-12.222656c7.515624-6.800782 17.277343-10.589844 27.414062-10.648438zm-79.1875-18.167969 39.832031 41.039063h-79.664062zm-105.675781 35.414063c7.039062-.894532 13.527343-4.269532 18.292969-9.523438 4.769531-4.3125 9.769531-8.359375 14.984374-12.117187 4.953126-4.179688 11.457032-6.042969 17.871094-5.121094 5.449219 1.359375 10.339844 4.378906 13.992188 8.644531l-23.082032 23.742188h-54.363281c3.417969-3.105469 7.71875-5.070313 12.304688-5.625zm-46.558594 33.785156c.136719-6.25 5.296875-11.210938 11.546875-11.09375h301.175781c6.246094-.117188 11.410157 4.84375 11.542969 11.09375v37.546875c-.132812 6.246094-5.296875 11.207031-11.542969 11.089844h-5.523437c-4.710938 0-8.53125 3.820312-8.53125 8.535156v296.105469c-.136719 6.25-5.300782 11.207031-11.546875 11.09375h-249.976563c-6.246094.113281-11.410156-4.84375-11.542968-11.09375v-296.105469c0-4.714844-3.824219-8.535156-8.535157-8.535156h-5.519531c-6.25.117187-11.410156-4.84375-11.546875-11.089844zm-24.507813 101.425781c5.972657-13.796875 1.621094-27.265625-2.558593-40.304687-3.804688-10.113282-5.960938-20.773438-6.382813-31.570313 0-6.785156 2.558594-8.9375 3.410156-9.644531 3.835938-2.507812 8.414063-3.628906 12.972657-3.183594v20.824219c.117187 14.503906 11.160156 26.585937 25.597656 28.003906v31.726563l-33.277344 31.257812c-1.277343-8.996094-1.195312-18.136718.238281-27.109375zm-7.277343 97.59375 25.453125 47.875c-8.15625 2.140625-15.773438 5.976563-22.347656 11.253907-3.0625-8.410157-6.644532-16.625-10.71875-24.59375-6.074219-11.847657-2.882813-26.339844 7.613281-34.535157zm0 0"/><path d="m157.667969 425c.476562.324219.992187.585938 1.535156.777344.484375.246094 1.003906.417968 1.535156.511718.566407.097657 1.136719.15625 1.707031.171876 3.453126-.023438 6.550782-2.109376 7.875-5.296876 1.320313-3.1875.605469-6.855468-1.816406-9.3125-2.058594-1.984374-4.953125-2.847656-7.765625-2.3125-.53125.089844-1.050781.265626-1.535156.511719-.542969.183594-1.058594.445313-1.535156.765625l-1.28125 1.035156c-3.296875 3.371094-3.296875 8.761719 0 12.132813zm0 0"/><path d="m115 382.332031c.476562.328125.992188.589844 1.539062.777344.480469.246094 1 .417969 1.535157.511719.5625.101562 1.132812.15625 1.707031.171875 3.449219-.023438 6.550781-2.109375 7.871094-5.296875 1.324218-3.1875.609375-6.855469-1.8125-9.3125-2.0625-1.984375-4.957032-2.84375-7.765625-2.3125-.535157.09375-1.054688.265625-1.535157.511718-.546874.1875-1.0625.445313-1.539062.769532l-1.277344 1.03125c-3.300781 3.371094-3.300781 8.761718 0 12.132812zm0 0"/><path d="m115 331.132812c.476562.328126.992188.585938 1.539062.777344.480469.246094 1 .417969 1.535157.511719.5625.097656 1.132812.15625 1.707031.171875 3.449219-.023438 6.550781-2.109375 7.871094-5.296875 1.324218-3.1875.609375-6.855469-1.8125-9.3125-2.0625-1.984375-4.957032-2.84375-7.765625-2.3125-.535157.09375-1.054688.265625-1.535157.511719-.546874.1875-1.0625.445312-1.539062.765625l-1.277344 1.035156c-3.300781 3.371094-3.300781 8.761719 0 12.132813zm0 0"/><path d="m208.867188 425c.476562.324219.992187.585938 1.535156.777344.484375.246094 1.003906.417968 1.539062.511718.5625.097657 1.132813.15625 1.707032.171876 3.449218-.023438 6.550781-2.109376 7.871093-5.296876 1.320313-3.1875.605469-6.855468-1.8125-9.3125-2.0625-1.984374-4.957031-2.847656-7.765625-2.3125-.535156.089844-1.054687.265626-1.539062.511719-.542969.183594-1.058594.445313-1.535156.765625l-1.277344 1.035156c-3.300782 3.371094-3.300782 8.761719 0 12.132813zm0 0"/><path d="m166.203125 382.332031c.472656.328125.988281.589844 1.535156.777344.484375.246094 1 .417969 1.535157.511719.5625.101562 1.132812.15625 1.707031.171875 3.449219-.023438 6.550781-2.109375 7.871093-5.296875 1.324219-3.1875.609376-6.855469-1.8125-9.3125-2.0625-1.984375-4.957031-2.84375-7.765624-2.3125-.535157.09375-1.050782.265625-1.535157.511718-.542969.1875-1.0625.445313-1.535156.769532l-1.28125 1.03125c-3.296875 3.371094-3.296875 8.761718 0 12.132812zm0 0"/><path d="m115 425c.476562.324219.992188.585938 1.539062.777344.480469.246094 1 .417968 1.535157.511718.5625.097657 1.132812.15625 1.707031.171876 3.449219-.023438 6.550781-2.109376 7.871094-5.296876 1.324218-3.1875.609375-6.855468-1.8125-9.3125-2.0625-1.984374-4.957032-2.847656-7.765625-2.3125-.535157.089844-1.054688.265626-1.535157.511719-.546874.183594-1.0625.445313-1.539062.765625l-1.277344 1.035156c-3.300781 3.371094-3.300781 8.761719 0 12.132813zm0 0"/></svg>