<?xml version="1.0" encoding="utf-8"?>
<!-- Generator: Adobe Illustrator 22.1.0, SVG Export Plug-In . SVG Version: 6.00 Build 0)  -->
<svg version="1.1" id="Capa_1" xmlns="http://www.w3.org/2000/svg" xmlns:xlink="http://www.w3.org/1999/xlink" x="0px" y="0px"
	 viewBox="0 0 512 512" style="enable-background:new 0 0 512 512;" xml:space="preserve">
<style type="text/css">
	.st0{fill:#383838;}
</style>
<g>
	<g>
		<path class="st0" d="M247.7,302.9c0.3-1.8,0.5-3.6,0.6-5.4c0,0,0,0,0,0s0,0,0,0c0-0.7,0.1-1.5,0.1-2.2v-95.6
			c0-3.1-0.2-6.3-0.5-9.4c0,0,0-0.1,0-0.1c-1.3-13.8-5.6-27.3-12.5-39.4l-33.1-58.1c0,0,0,0,0,0l-6.1-10.7
			c-4.9-8.7-8.6-17.9-10.9-27.6c6.2-2.2,10.6-8,10.6-14.9V15.8c0-8.7-7.1-15.8-15.8-15.8h-46.7c-8.7,0-15.8,7.1-15.8,15.8v23.5
			c0,6.9,4.4,12.8,10.6,14.9c-2.4,9.6-6,18.9-10.9,27.6l-6.1,10.7l-33.1,58.1c-6.9,12.1-11.1,25.6-12.5,39.4c0,0,0,0.1,0,0.1
			c-0.3,3.1-0.5,6.2-0.5,9.4v95.6c0,0.7,0,1.5,0.1,2.2c0,0,0,0,0,0c0,0,0,0,0,0c0.1,1.8,0.3,3.7,0.6,5.5l9,51
			c2.4,14.5,1.1,29.4-3.8,43.2c-3.9,11-5.8,22.4-5.8,34v6.8c0,17.3,4.4,34.4,12.8,49.5l4.4,8C88,505.7,98.7,512,110.3,512h16.4
			c6.5,0,12.7-3.2,16.6-8.4c1-1.4,2.6-2.2,4.4-2.2h18.2c1.7,0,3.4,0.8,4.4,2.2c3.8,5.3,10,8.4,16.6,8.4h16.4
			c11.6,0,22.3-6.3,27.9-16.5l4.4-8c8.4-15.1,12.8-32.2,12.8-49.5v-6.8c0-11.6-2-23.1-5.8-34c-4.9-13.8-6.2-28.8-3.8-43.2
			L247.7,302.9z M133.4,15.1h46.7c0.4,0,0.8,0.3,0.8,0.8v23.5c0,0.4-0.3,0.8-0.8,0.8h-46.7c-0.4,0-0.8-0.3-0.8-0.8V15.8l0,0
			C132.6,15.4,133,15.1,133.4,15.1z M143.4,55.2h26.6c2.6,11.7,6.9,23,12.7,33.5h-52.1C136.6,78.2,140.8,67,143.4,55.2z M80.2,199.6
			c0-0.4,0-0.8,0-1.1h22.1c4.2,0,7.5-3.4,7.5-7.5s-3.4-7.5-7.5-7.5H81.8c1.7-8.8,4.9-17.4,9.4-25.2l30.9-54.3h69.3l30.9,54.3
			c4.5,7.9,7.6,16.4,9.4,25.2h-94.2c-4.2,0-7.5,3.4-7.5,7.5s3.4,7.5,7.5,7.5h95.8c0,0.4,0,0.8,0,1.1v26.9c-6.7-1.3-11-4.4-16.1-8
			c-7.5-5.4-16-11.5-32.4-11.5c-16.4,0-24.9,6.1-32.4,11.5c-6.7,4.8-12,8.6-23.6,8.6c-11.6,0-16.9-3.8-23.6-8.6
			c-6.2-4.5-13.2-9.5-24.9-11C80.2,207.5,80.2,199.6,80.2,199.6z M80.2,264.8c6.7,1.3,11,4.4,16.1,8c7.5,5.4,16,11.5,32.4,11.5
			c16.4,0,24.9-6.1,32.4-11.5c6.7-4.8,12-8.6,23.6-8.6s16.9,3.8,23.6,8.6c6.2,4.5,13.2,9.5,24.9,11v5.7h-153V264.8z M233.2,438
			L233.2,438c0,14.7-3.8,29.3-10.9,42.2l-4.4,8c-3,5.3-8.6,8.7-14.7,8.7h-16.4c-1.7,0-3.4-0.8-4.4-2.2c-3.8-5.3-10-8.4-16.6-8.4
			h-18.2c-6.5,0-12.7,3.2-16.6,8.4c-1,1.4-2.6,2.2-4.4,2.2h-16.4c-6.1,0-11.7-3.3-14.7-8.7l-4.4-8C84,467.3,80.2,452.7,80.2,438
			v-6.8c0-9.9,1.7-19.7,5-29c5.7-16.2,7.3-33.8,4.4-50.8l-8.2-46.8h150.7l-8.2,46.9c-2.8,17-1.3,34.5,4.5,50.7c3.3,9.3,5,19.1,5,29
			V438z M233.2,268.5L233.2,268.5c-6.7-1.3-11-4.4-16.1-8c-7.5-5.4-16-11.5-32.4-11.5c-16.4,0-24.9,6.1-32.4,11.5
			c-6.7,4.8-12,8.6-23.6,8.6c-11.6,0-16.9-3.8-23.6-8.6c-6.2-4.5-13.2-9.5-24.9-11v-26.7c6.7,1.3,11,4.4,16.1,8
			c7.5,5.4,16,11.5,32.4,11.5c16.4,0,24.9-6.1,32.4-11.5c6.7-4.8,12-8.6,23.6-8.6s16.9,3.8,23.6,8.6c6.2,4.5,13.2,9.5,24.9,11
			L233.2,268.5L233.2,268.5z"/>
	</g>
</g>
<g>
	<g>
		<path class="st0" d="M446.2,261.9c-0.6-6.2-5.6-10.8-11.8-10.8h-131c-6.2,0-11.3,4.6-11.8,10.8c-1.1,12.3-2.1,45.1,9.8,97.6
			c0.1,0.5,0.3,1.1,0.4,1.7c0.3,1.2,0.5,2.3,0.8,3.5c0.3,1.1,0.5,2.3,0.8,3.5c0.1,0.5,0.3,1,0.4,1.6c0.4,1.6,0.8,3.3,1.2,4.9
			c13.2,51.3,8.6,93.9,4.7,114.7c-1.1,5.6,0.4,11.4,4.1,15.7c3.6,4.4,9,6.9,14.7,6.9h80.7c5.7,0,11.1-2.5,14.7-6.9
			c3.6-4.4,5.1-10.1,4.1-15.7c-3.9-20.8-8.5-63.4,4.7-114.7c0.4-1.7,0.8-3.3,1.2-4.9c0.1-0.5,0.3-1,0.4-1.6c0.3-1.2,0.6-2.4,0.8-3.5
			c0.3-1.1,0.5-2.3,0.8-3.4c0.1-0.6,0.3-1.2,0.4-1.7C448.4,307,447.3,274.2,446.2,261.9z M412.3,495.5c-0.4,0.5-1.4,1.4-3.1,1.4
			h-80.7c-1.6,0-2.6-0.9-3.1-1.4c-0.5-0.5-1.2-1.7-0.9-3.3c0.5-2.8,1.1-6,1.6-9.6c12.9,0.7,27.5,1.1,42.7,1.1
			c15.2,0,29.8-0.4,42.7-1.1c0.5,3.6,1.1,6.8,1.6,9.6C413.5,493.8,412.8,494.9,412.3,495.5z M356.9,292.6h74.3
			c-0.3,4.4-0.7,9.4-1.3,14.8c0,0.1,0,0.3,0,0.4c0,0.4-0.1,0.9-0.2,1.3c-2.7,23.4-7.6,45.4-10.5,57.1c-0.4,1.5-0.8,3-1.2,4.6
			c-9.9,38.5-10.3,72.4-8.3,96.7c-12.4,0.6-26.4,1-41,1s-28.5-0.3-41-1c2.1-24.3,1.7-58.2-8.3-96.7c-0.4-1.6-0.8-3.1-1.2-4.6
			c-2.9-11.7-7.8-33.7-10.5-57.1c-0.1-0.5-0.1-0.9-0.2-1.4c0-0.1,0-0.2,0-0.4c-0.6-5.5-1-10.4-1.3-14.8h15.2c4.2,0,7.5-3.4,7.5-7.5
			s-3.4-7.5-7.5-7.5H306c0-3.8,0.1-7.6,0.4-11.3h125c0.3,3.7,0.4,7.4,0.4,11.3h-74.9c-4.2,0-7.5,3.4-7.5,7.5
			C349.4,289.2,352.7,292.6,356.9,292.6z"/>
	</g>
</g>
</svg>
