<?xml version="1.0" encoding="iso-8859-1"?>
<!-- Generator: Adobe Illustrator 19.0.0, SVG Export Plug-In . SVG Version: 6.00 Build 0)  -->
<svg version="1.1" id="Capa_1" xmlns="http://www.w3.org/2000/svg" xmlns:xlink="http://www.w3.org/1999/xlink" x="0px" y="0px"
	 viewBox="0 0 512 512" style="enable-background:new 0 0 512 512;" xml:space="preserve">
<g>
	<g>
		<path d="M128.625,130.789c-16.618,0-30.137,13.519-30.137,30.137c0,16.617,13.519,30.137,30.137,30.137
			s30.137-13.52,30.137-30.137C158.762,144.308,145.243,130.789,128.625,130.789z M128.625,176.064
			c-8.346,0-15.137-6.791-15.137-15.137c0-8.346,6.791-15.137,15.137-15.137s15.137,6.791,15.137,15.137
			C143.762,169.273,136.971,176.064,128.625,176.064z"/>
	</g>
</g>
<g>
	<g>
		<path d="M213.541,130.789c-16.618,0-30.137,13.519-30.137,30.137c0.001,16.617,13.52,30.137,30.137,30.137
			c16.618,0,30.137-13.52,30.137-30.137C243.678,144.308,230.159,130.789,213.541,130.789z M213.541,176.064
			c-8.346,0-15.137-6.791-15.137-15.137c0-8.346,6.791-15.137,15.137-15.137s15.137,6.791,15.137,15.137
			C228.678,169.273,221.887,176.064,213.541,176.064z"/>
	</g>
</g>
<g>
	<g>
		<path d="M298.458,130.789c-16.618,0-30.137,13.519-30.137,30.137c0,16.617,13.519,30.137,30.137,30.137
			c16.618,0,30.137-13.52,30.137-30.137C328.595,144.308,315.076,130.789,298.458,130.789z M298.458,176.064
			c-8.346,0-15.137-6.791-15.137-15.137c0-8.346,6.791-15.137,15.137-15.137s15.137,6.791,15.137,15.137
			C313.595,169.273,306.804,176.064,298.458,176.064z"/>
	</g>
</g>
<g>
	<g>
		<path d="M383.374,130.789c-16.618,0-30.137,13.519-30.137,30.137c0.001,16.617,13.52,30.137,30.137,30.137
			c16.618,0,30.137-13.52,30.137-30.137C413.511,144.308,399.992,130.789,383.374,130.789z M383.374,176.064
			c-8.346,0-15.137-6.791-15.137-15.137c0-8.346,6.791-15.137,15.137-15.137s15.137,6.791,15.137,15.137
			C398.511,169.273,391.72,176.064,383.374,176.064z"/>
	</g>
</g>
<g>
	<g>
		<path d="M163.152,309.205c-4.142,0-7.5,3.357-7.5,7.5v16.804c0,4.142,3.358,7.5,7.5,7.5c4.142,0,7.5-3.358,7.5-7.5v-16.804
			C170.652,312.563,167.294,309.205,163.152,309.205z"/>
	</g>
</g>
<g>
	<g>
		<path d="M348.847,309.205c-4.142,0-7.5,3.357-7.5,7.5v16.804c0,4.142,3.358,7.5,7.5,7.5c4.142,0,7.5-3.358,7.5-7.5v-16.804
			C356.347,312.563,352.99,309.205,348.847,309.205z"/>
	</g>
</g>
<g>
	<g>
		<path d="M283.852,326.693c-3.119-2.726-7.857-2.408-10.583,0.711c-4.208,4.813-10.502,7.575-17.269,7.575
			s-13.062-2.761-17.27-7.575c-2.727-3.119-7.464-3.437-10.583-0.711s-3.437,7.464-0.711,10.583
			c7.057,8.073,17.468,12.703,28.563,12.703c11.095,0,21.506-4.63,28.563-12.703C287.289,334.157,286.97,329.419,283.852,326.693z"
			/>
	</g>
</g>
<g>
	<g>
		<path d="M434.076,97.62V32.985C434.075,14.797,419.278,0,401.09,0H182.479c-4.142,0-7.5,3.358-7.5,7.5s3.358,7.5,7.5,7.5H401.09
			c9.917,0,17.985,8.068,17.985,17.985v63.881h-19.332V83.553c0-12.601-10.251-22.853-22.853-22.853h-49.313
			c-12.601,0-22.853,10.252-22.853,22.853v13.313h-97.45V83.553c0-12.601-10.252-22.853-22.853-22.853h-49.313
			c-12.601,0-22.853,10.252-22.853,22.853v13.313H92.924V32.985c0-9.917,8.068-17.985,17.985-17.985h41.569
			c4.142,0,7.5-3.358,7.5-7.5s-3.358-7.5-7.5-7.5h-41.569C92.721,0,77.924,14.797,77.924,32.985V97.62
			c-17.135,3.485-30.071,18.668-30.071,36.817v307.02c0,18.149,12.936,33.332,30.071,36.817v9.475
			c0,13.372,10.879,24.251,24.251,24.251h28.753c13.372,0,24.251-10.879,24.251-24.251v-8.722H356.82v8.722
			c0,13.372,10.879,24.251,24.25,24.251h28.753c13.372,0,24.251-10.879,24.251-24.251v-9.475
			c17.137-3.485,30.073-18.669,30.073-36.817v-307.02C464.147,116.288,451.211,101.105,434.076,97.62z M319.725,83.553
			L319.725,83.553c0-4.33,3.523-7.853,7.853-7.853h49.313c4.33,0,7.853,3.523,7.853,7.853v13.313h-65.019V83.553z M127.256,83.553
			c0-4.33,3.523-7.853,7.853-7.853h49.313c4.33,0,7.853,3.523,7.853,7.853v13.313h-65.019V83.553z M140.179,487.749
			c0,5.101-4.15,9.251-9.251,9.251h-28.753c-5.101,0-9.251-4.15-9.251-9.251v-8.722h47.255V487.749z M419.076,487.749h-0.001
			c0,5.101-4.15,9.251-9.251,9.251h-28.753c-5.101,0-9.25-4.15-9.25-9.251v-8.722h47.255V487.749z M426.576,464.028H85.424
			c-12.446,0-22.571-10.125-22.571-22.571v-307.02c0-12.446,10.125-22.571,22.571-22.571h341.151
			c12.446,0,22.571,10.125,22.571,22.571v307.02h0.001C449.147,453.903,439.022,464.028,426.576,464.028z"/>
	</g>
</g>
<g>
	<g>
		<path d="M420.246,201.726H91.753c-11.021,0-19.987,8.966-19.987,19.987v9.728c0,8.368,5.174,15.54,12.487,18.514V407.22
			c0,16.355,13.306,29.661,29.661,29.661h284.171c16.355,0,29.661-13.306,29.661-29.661V249.954
			c7.313-2.974,12.487-10.146,12.487-18.514v-9.728C440.233,210.691,431.267,201.726,420.246,201.726z M425.233,231.44
			c0,2.75-2.237,4.987-4.987,4.987h-57.768c-4.046,0-7.5,3.449-7.5,7.5c0,4.142,3.358,7.5,7.5,7.5h50.268v155.792
			c0,8.084-6.577,14.661-14.661,14.661H113.914c-8.084,0-14.661-6.577-14.661-14.661V251.427h233.226c4.142,0,7.5-3.358,7.5-7.5
			c0-4.029-3.465-7.5-7.5-7.5H91.753c-2.75,0-4.987-2.237-4.987-4.987v-9.728c0-2.75,2.237-4.987,4.987-4.987h328.493
			c2.75,0,4.987,2.237,4.987,4.987V231.44z"/>
	</g>
</g>
<g>
</g>
<g>
</g>
<g>
</g>
<g>
</g>
<g>
</g>
<g>
</g>
<g>
</g>
<g>
</g>
<g>
</g>
<g>
</g>
<g>
</g>
<g>
</g>
<g>
</g>
<g>
</g>
<g>
</g>
</svg>
