<?xml version="1.0"?>
<svg xmlns="http://www.w3.org/2000/svg" height="512px" version="1.1" viewBox="-28 1 511 511.99926" width="512px">
<g id="surface1">
<path d="M 442.765625 370.417969 L 116.597656 370.417969 C 96.085938 370.417969 78.683594 354.261719 78.683594 333.75 L 78.683594 49.84375 C 78.683594 22.375 56.933594 0 29.585938 0 L 12.929688 0 C 6.09375 0 0.5 5.59375 0.5 12.429688 C 0.5 19.265625 6.09375 24.859375 12.929688 24.859375 L 29.585938 24.859375 C 43.257812 24.859375 53.824219 36.171875 53.824219 49.84375 L 53.824219 333.75 C 53.824219 368.058594 82.289062 395.28125 116.597656 395.28125 L 442.765625 395.28125 C 449.601562 395.28125 455.195312 389.6875 455.195312 382.851562 C 455.195312 376.011719 449.601562 370.417969 442.765625 370.417969 Z M 442.765625 370.417969 " style=" fill-rule:nonzero;fill-opacity:1;" stroke="#D80027" fill="#D80027"/>
<path d="M 160.601562 414.296875 C 133.625 414.296875 111.75 436.175781 111.75 463.148438 C 111.75 490.121094 133.625 512 160.601562 512 C 187.574219 512 209.449219 490.121094 209.449219 463.148438 C 209.449219 436.175781 187.574219 414.296875 160.601562 414.296875 Z M 160.601562 487.140625 C 147.300781 487.140625 136.609375 476.324219 136.609375 463.148438 C 136.609375 449.847656 147.425781 439.160156 160.601562 439.160156 C 173.777344 439.160156 184.589844 449.972656 184.589844 463.148438 C 184.714844 476.449219 173.902344 487.140625 160.601562 487.140625 Z M 160.601562 487.140625 " style=" fill-rule:nonzero;fill-opacity:1;" stroke="#D80027" fill="#D80027"/>
<path d="M 363.335938 414.296875 C 336.363281 414.296875 314.484375 436.175781 314.484375 463.148438 C 314.484375 490.121094 336.363281 512 363.335938 512 C 390.308594 512 412.1875 490.121094 412.1875 463.148438 C 412.1875 436.175781 390.1875 414.296875 363.335938 414.296875 Z M 363.335938 487.140625 C 350.035156 487.140625 339.347656 476.324219 339.347656 463.148438 C 339.347656 449.847656 350.160156 439.160156 363.335938 439.160156 C 376.636719 439.160156 387.328125 449.972656 387.328125 463.148438 C 387.328125 476.449219 376.511719 487.140625 363.335938 487.140625 Z M 363.335938 487.140625 " style=" fill-rule:nonzero;fill-opacity:1;" stroke="#D80027" fill="#D80027"/>
<path d="M 344.691406 79.554688 C 344.691406 67.246094 334.625 57.179688 322.316406 57.179688 L 209.203125 57.179688 C 196.894531 57.179688 186.828125 67.246094 186.828125 79.554688 L 186.828125 172.78125 C 186.828125 185.085938 196.894531 195.15625 209.203125 195.15625 L 322.316406 195.15625 C 334.621094 195.15625 344.691406 185.085938 344.691406 172.78125 Z M 211.6875 170.292969 L 211.6875 119.328125 L 318.589844 119.328125 L 318.589844 170.292969 Z M 318.589844 82.039062 L 318.589844 94.46875 L 211.6875 94.46875 L 211.6875 82.039062 Z M 318.589844 82.039062 " style=" fill-rule:nonzero;fill-opacity:1;" stroke="#D80027" fill="#D80027"/>
<path d="M 257.679688 228.714844 C 257.679688 216.410156 247.613281 206.339844 235.304688 206.339844 L 122.191406 206.339844 C 109.886719 206.339844 99.816406 216.410156 99.816406 228.714844 L 99.816406 321.941406 C 99.816406 334.246094 109.882812 344.316406 122.191406 344.316406 L 235.304688 344.316406 C 247.613281 344.316406 257.679688 334.246094 257.679688 321.941406 Z M 124.675781 319.457031 L 124.675781 268.492188 L 231.574219 268.492188 L 231.574219 319.457031 Z M 231.578125 231.203125 L 231.578125 243.632812 L 124.675781 243.632812 L 124.675781 231.203125 Z M 231.578125 231.203125 " style=" fill-rule:nonzero;fill-opacity:1;" stroke="#D80027" fill="#D80027"/>
<path d="M 431.703125 228.714844 C 431.703125 216.410156 421.636719 206.339844 409.328125 206.339844 L 296.214844 206.339844 C 283.90625 206.339844 273.839844 216.410156 273.839844 228.714844 L 273.839844 321.941406 C 273.839844 334.246094 283.90625 344.316406 296.214844 344.316406 L 409.328125 344.316406 C 421.636719 344.316406 431.703125 334.246094 431.703125 321.941406 Z M 298.699219 319.457031 L 298.699219 268.492188 L 405.597656 268.492188 L 405.597656 319.457031 Z M 405.597656 231.203125 L 405.597656 243.632812 L 298.699219 243.632812 L 298.699219 231.203125 Z M 405.597656 231.203125 " style=" fill-rule:nonzero;fill-opacity:1;" stroke="#D80027" fill="#D80027"/>
</g>
</svg>
