<?xml version="1.0"?>
<svg xmlns="http://www.w3.org/2000/svg" height="512px" viewBox="0 -82 512 512" width="512px"><path d="m131.046875 91.75h-71.824219c-3.507812 0-6.550781 2.429688-7.320312 5.851562l-14.257813 63.417969c-.5 2.222657.039063 4.550781 1.460938 6.332031 1.421875 1.777344 3.578125 2.8125 5.855469 2.8125h78.585937v35.011719c0 4.140625 3.355469 7.5 7.5 7.5 4.140625 0 7.5-3.359375 7.5-7.5v-105.929687c0-4.140625-3.359375-7.496094-7.5-7.496094zm-7.5 63.414062h-69.210937l10.886718-48.414062h58.324219zm0 0" fill="#D80027"/><path d="m505.410156 6.589844c-4.25-4.238282-9.898437-6.5781252-15.910156-6.589844h-313.449219c-6.019531.0117188-11.671875 2.351562-15.910156 6.589844-4.25 4.25-6.589844 9.898437-6.601563 15.910156v39.25h-92.527343c-17.667969 0-32.710938 12.035156-36.585938 29.269531l-11.355469 50.488281c-3.035156 13.488282-4.570312 27.335938-4.570312 41.15625v69.015626c-5.019531 2.425781-8.5 7.554687-8.5 13.496093v15c0 8.269531 6.730469 15 15 15h34.03125c3.703125 29.554688 28.972656 52.5 59.515625 52.5 30.539063 0 55.808594-22.945312 59.511719-52.5h175.925781c3.703125 29.554688 28.972656 52.5 59.515625 52.5 30.574219 0 55.863281-22.996093 59.527344-52.597656 11.457031-1.027344 20.472656-10.679687 20.472656-22.402344v-60.003906h6c6.011719 0 11.660156-2.34375 15.910156-6.59375 4.25-4.238281 6.589844-9.890625 6.589844-15.898437v-167.679688c0-6.011719-2.339844-11.660156-6.589844-15.910156zm-456.390625 273.585937h-34.019531v-15h37.929688c-1.949219 4.800781-3.261719 9.832031-3.910157 15zm59.527344 52.5c-24.816406 0-45-20.1875-45-45 0-24.957031 20.414063-45 45-45 24.8125 0 45 20.1875 45 45-.003906 24.8125-20.191406 45-45 45zm45-84.621093c-11.003906-12.484376-27.09375-20.378907-45-20.378907-18.21875 0-35.417969 8.347657-46.78125 22.5h-38.265625v-67.511719c0-12.714843 1.414062-25.457031 4.203125-37.863281l11.355469-50.488281c2.324218-10.339844 11.351562-17.5625 21.953125-17.5625h92.527343zm249.953125 84.621093c-24.8125 0-45-20.1875-45-45s20.1875-45 45-45 45 20.1875 45 45-20.1875 45-45 45zm93.5-142.496093c-.011719 4.121093-3.371094 7.492187-7.5 7.5h-298.449219c-4.140625 0-7.5 3.359374-7.5 7.5 0 4.128906 3.359375 7.492187 7.5 7.492187h277.449219v60.003906c0 3.449219-2.34375 6.355469-5.519531 7.226563-3.828125-29.421875-29.03125-52.226563-59.480469-52.226563-30.542969 0-55.8125 22.945313-59.515625 52.5h-175.441406l-.003907-257.675781c.011719-4.121094 3.378907-7.488281 7.511719-7.5h313.449219c4.128906.011719 7.488281 3.378906 7.5 7.5zm0 0" fill="#D80027"/><path d="m128.648438 275.078125c-4.019532.972656-6.5 5.03125-5.519532 9.050781.269532 1.160156.421875 2.351563.421875 3.550782-.019531 8.25-6.75 14.980468-15 15-8.261719-.019532-14.992187-6.75-15.011719-15 .019532-8.257813 6.75-14.988282 15.011719-15 4.128907 0 7.488281-3.371094 7.488281-7.5 0-4.128907-3.347656-7.488282-7.46875-7.5-.011718 0-.019531-.007813-.019531-.007813-16.597656.019531-30 13.410156-30 30.007813 0 16.550781 13.371094 29.980468 30 30 16.59375-.019532 29.988281-13.425782 29.988281-30 0-2.390626-.277343-4.769532-.828124-7.070313-.984376-4.046875-5.027344-6.5-9.0625-5.53125zm0 0" fill="#D80027"/><path d="m423.609375 275.078125c-4.019531.972656-6.5 5.03125-5.53125 9.050781.28125 1.148438.421875 2.339844.421875 3.550782-.019531 8.25-6.75 14.980468-15 15-8.261719-.019532-14.988281-6.75-15-15 .011719-8.257813 6.738281-14.988282 15-15 4.128906 0 7.5-3.371094 7.5-7.5 0-4.128907-3.359375-7.488282-7.480469-7.5-.007812 0-.007812-.007813-.019531-.007813-16.617188.019531-30 13.445313-30 30.007813 0 8.011718 3.121094 15.539062 8.789062 21.210937 5.660157 5.660156 13.191407 8.78125 21.210938 8.789063 8.011719-.007813 15.550781-3.128907 21.210938-8.789063 5.667968-5.671875 8.789062-13.199219 8.789062-21.210937 0-2.378907-.28125-4.757813-.839844-7.070313-.984375-4.0625-5.03125-6.496094-9.050781-5.53125zm0 0" fill="#D80027"/></svg>
