<svg version="1.1" id="el_dx6QsuStwU" xmlns="http://www.w3.org/2000/svg" xmlns:xlink="http://www.w3.org/1999/xlink" x="0px" y="0px" viewBox="0 0 347 497" style="enable-background:new 0 0 347.1 497.2;" xml:space="preserve"><style>@-webkit-keyframes el_gtr4RgwO8d_M3lCZnbcZ_Animation{
0%{-webkit-transform: scale(0.9, 0.9);transform: scale(0.9, 0.9);}
50%{-webkit-transform: scale(1, 1);transform: scale(1, 1);}
100%{-webkit-transform: scale(0.9, 0.9);transform: scale(0.9, 0.9);}}
@keyframes el_gtr4RgwO8d_M3lCZnbcZ_Animation{
0%{-webkit-transform: scale(0.9, 0.9);transform: scale(0.9, 0.9);}
50%{-webkit-transform: scale(1, 1);transform: scale(1, 1);}
100%{-webkit-transform: scale(0.9, 0.9);transform: scale(0.9, 0.9);}}
#el_dx6QsuStwU *{-webkit-animation-duration: 1s;animation-duration: 1s;-webkit-animation-iteration-count: infinite;animation-iteration-count: infinite;-webkit-animation-timing-function: cubic-bezier(0, 0, 1, 1);animation-timing-function: cubic-bezier(0, 0, 1, 1);}
#el_gtr4RgwO8d{fill: none;stroke: #E43A2C;stroke-width: 13;stroke-miterlimit: 10;}
#el_gtr4RgwO8d_M3lCZnbcZ{-webkit-animation-name: el_gtr4RgwO8d_M3lCZnbcZ_Animation;animation-name: el_gtr4RgwO8d_M3lCZnbcZ_Animation;-webkit-transform-origin: 50% 50%;transform-origin: 50% 50%;transform-box: fill-box;}</style>

<title>icon</title>
<g id="el_gtr4RgwO8d_M3lCZnbcZ" data-animator-group="true" data-animator-type="2"><path d="M333.8,172.2c-3.6-84.5-73.7-152.4-158.3-153.4C86.9,17.7,14.2,88.6,13.1,177.2c-0.3,25.7,5.5,51,17.1,74l0,0&#10;&#9;l0.5,0.9c2,3.9,4.1,7.6,6.4,11.3l66.4,118.3l47.1,83.3c7.2,12.7,23.3,17.1,36,10c4.2-2.4,7.6-5.8,10-10l47.1-83.3l66.3-118.2&#10;&#9;c2.3-3.7,4.4-7.5,6.4-11.3l0.5-0.9l0,0C329.3,226.8,335.1,199.5,333.8,172.2z M140.4,320.5c-7.9-0.1-14.3-6.5-14.2-14.4&#10;&#9;c0.1-7.9,6.5-14.3,14.4-14.2c7.9,0.1,14.3,6.5,14.2,14.4c0,0,0,0,0,0C154.8,314.2,148.3,320.6,140.4,320.5z M181.4,320.8&#10;&#9;c-7.9-0.1-14.3-6.5-14.3-14.4c0.1-7.9,6.5-14.3,14.4-14.3c7.9,0.1,14.3,6.5,14.3,14.4C195.8,314.5,189.3,320.8,181.4,320.8&#10;&#9;C181.4,320.8,181.4,320.8,181.4,320.8z M284.5,177.9c0,0.3,0,0.6,0,0.9s0,0.3,0,0.5c0,0.4-0.1,0.7-0.2,1l-0.1,0.3&#10;&#9;c-0.1,0.4-0.2,0.8-0.3,1.2c0,0.1,0,0.1,0,0.1c-0.1,0.4-0.3,0.9-0.5,1.3l0,0c-0.2,0.5-0.5,1.1-0.8,1.6l-55.3,94.2&#10;&#9;c-2.4,5.1-7.5,8.4-13.1,8.3l-106.1-0.7c-7.9,0.1-14.5-6.2-14.6-14.1c-0.1-7.9,6.2-14.5,14.1-14.6c0.2,0,0.5,0,0.7,0l97.7,0.7&#10;&#9;l39.2-66.8l-151-1c-5.3-0.2-10.1-3-12.7-7.6L65.3,155c-4.1-6.8-2-15.6,4.7-19.8c6.8-4.1,15.6-2,19.8,4.7c0.2,0.3,0.3,0.5,0.5,0.8&#10;&#9;l12.1,21.4l167.7,1.1h0.2c0.3,0,0.6,0,0.9,0.1h0.4c0.4,0,0.8,0.1,1.3,0.2h0.1c1.5,0.3,3,0.9,4.3,1.6c2.3,1.3,4.1,3.3,5.4,5.6&#10;&#9;c0,0,0,0.1,0.1,0.1c0.2,0.3,0.3,0.6,0.5,1l0.2,0.4c0.1,0.2,0.2,0.5,0.3,0.8c0.1,0.3,0.1,0.4,0.2,0.7s0.1,0.4,0.2,0.6&#10;&#9;c0.1,0.2,0.1,0.5,0.2,0.8c0,0.3,0.1,0.4,0.1,0.6s0.1,0.5,0.1,0.8c0,0.3,0,0.5,0,0.7s0,0.3,0,0.5S284.5,177.9,284.5,177.9z" id="el_gtr4RgwO8d"/></g>
<script>(function(){var a=document.querySelector('#el_dx6QsuStwU'),b=a.querySelectorAll('style'),c=function(d){b.forEach(function(f){var g=f.textContent;g&amp;&amp;(f.textContent=g.replace(/transform-box:[^;\r\n]*/gi,'transform-box: '+d))})};c('initial'),window.requestAnimationFrame(function(){return c('fill-box')})})();</script></svg>