<svg id="el_lHVEpai69ke" data-name="Camada 1" xmlns="http://www.w3.org/2000/svg" viewBox="0 0 347 497"><style>@-webkit-keyframes el_vFa7dy4lIQD_YxEcsFzYN_Animation{
0%{-webkit-transform: scale(0.9, 0.9);transform: scale(0.9, 0.9);}
50%{-webkit-transform: scale(1, 1);transform: scale(1, 1);}
100%{-webkit-transform: scale(0.9, 0.9);transform: scale(0.9, 0.9);}}
@keyframes el_vFa7dy4lIQD_YxEcsFzYN_Animation{
0%{-webkit-transform: scale(0.9, 0.9);transform: scale(0.9, 0.9);}
50%{-webkit-transform: scale(1, 1);transform: scale(1, 1);}
100%{-webkit-transform: scale(0.9, 0.9);transform: scale(0.9, 0.9);}}
#el_lHVEpai69ke *{-webkit-animation-duration: 1s;animation-duration: 1s;-webkit-animation-iteration-count: infinite;animation-iteration-count: infinite;-webkit-animation-timing-function: cubic-bezier(0, 0, 1, 1);animation-timing-function: cubic-bezier(0, 0, 1, 1);}
#el_vFa7dy4lIQD{fill: #e43a2c;-webkit-transform: translate(-82.52px, -7px);transform: translate(-82.52px, -7px);}
#el_vFa7dy4lIQD_YxEcsFzYN{-webkit-animation-name: el_vFa7dy4lIQD_YxEcsFzYN_Animation;animation-name: el_vFa7dy4lIQD_YxEcsFzYN_Animation;-webkit-transform-origin: 50% 50%;transform-origin: 50% 50%;transform-box: fill-box;-webkit-transform: scale(0.9, 0.9);transform: scale(0.9, 0.9);}</style><defs/><title>icon</title><g id="el_vFa7dy4lIQD_YxEcsFzYN" data-animator-group="true" data-animator-type="2"><path d="M429.45,172.94C425.52,81.5,349.69,8.1,258.18,7A173.53,173.53,0,0,0,101,258.41h0l.59,1q3.2,6.26,6.87,12.24l71.85,127.92,51,90.1a28.55,28.55,0,0,0,49.69,0l51-90.1L403.74,271.7c2.46-4,4.74-8.07,6.88-12.24l.59-1h0A173,173,0,0,0,429.45,172.94ZM220.19,333.38A15.52,15.52,0,1,1,235.82,318,15.51,15.51,0,0,1,220.19,333.38Zm44.34.31a15.52,15.52,0,1,1,15.62-15.42A15.52,15.52,0,0,1,264.53,333.69ZM376.06,179.17c0,.32,0,.64-.05,1s0,.37-.05.55c0,.38-.11.75-.18,1.13l-.06.35c-.1.44-.22.87-.35,1.29,0,.06,0,.11,0,.16-.15.46-.32.92-.52,1.38v0a15.24,15.24,0,0,1-.85,1.72L314.19,288.61a15.56,15.56,0,0,1-14.2,9l-114.76-.78a15.55,15.55,0,1,1,.21-31.09l105.68.72,42.38-72.27-163.31-1.11a16.6,16.6,0,0,1-13.77-8.18L139,154.35a15.54,15.54,0,1,1,27-15.36l13.13,23.1,181.43,1.24h.2c.35,0,.69,0,1,.06l.45,0c.46,0,.91.13,1.37.22l.09,0a15.09,15.09,0,0,1,4.63,1.78,15.37,15.37,0,0,1,5.8,6.05c0,.05.05.09.07.14.18.35.35.7.5,1.06l.2.45c.1.27.2.54.29.82s.15.47.22.71.11.44.17.66.12.56.17.84.07.43.1.65.07.56.09.84,0,.52,0,.78,0,.35,0,.53S376.06,179.11,376.06,179.17Z" id="el_vFa7dy4lIQD"/></g><script>(function(){var a=document.querySelector('#el_lHVEpai69ke'),b=a.querySelectorAll('style'),c=function(d){b.forEach(function(f){var g=f.textContent;g&amp;&amp;(f.textContent=g.replace(/transform-box:[^;\r\n]*/gi,'transform-box: '+d))})};c('initial'),window.requestAnimationFrame(function(){return c('fill-box')})})();</script></svg>