<svg id="el_uH6fgikFKT" data-name="Camada 1" xmlns="http://www.w3.org/2000/svg" viewBox="0 0 79 112"><style>@-webkit-keyframes el_ydXnI5Y_b2_rklzdeLRT_Animation{
0%{-webkit-transform: scale(0.9, 0.9);transform: scale(0.9, 0.9);}
50%{-webkit-transform: scale(1, 1);transform: scale(1, 1);}
100%{-webkit-transform: scale(0.9, 0.9);transform: scale(0.9, 0.9);}}
@keyframes el_ydXnI5Y_b2_rklzdeLRT_Animation{
0%{-webkit-transform: scale(0.9, 0.9);transform: scale(0.9, 0.9);}
50%{-webkit-transform: scale(1, 1);transform: scale(1, 1);}
100%{-webkit-transform: scale(0.9, 0.9);transform: scale(0.9, 0.9);}}
#el_uH6fgikFKT *{-webkit-animation-duration: 1s;animation-duration: 1s;-webkit-animation-iteration-count: infinite;animation-iteration-count: infinite;-webkit-animation-timing-function: cubic-bezier(0, 0, 1, 1);animation-timing-function: cubic-bezier(0, 0, 1, 1);}
#el_ydXnI5Y_b2{fill: none;stroke: #fff;stroke-miterlimit: 10;stroke-width: 3px;-webkit-transform: translate(-23.92px, -7.5px);transform: translate(-23.92px, -7.5px);}
#el_ydXnI5Y_b2_rklzdeLRT{-webkit-animation-name: el_ydXnI5Y_b2_rklzdeLRT_Animation;animation-name: el_ydXnI5Y_b2_rklzdeLRT_Animation;-webkit-transform-origin: 50% 50%;transform-origin: 50% 50%;transform-box: fill-box;-webkit-transform: scale(0.9, 0.9);transform: scale(0.9, 0.9);-webkit-animation-timing-function: cubic-bezier(0.42, 0, 0.58, 1);animation-timing-function: cubic-bezier(0.42, 0, 0.58, 1);}</style><defs/><title>icon-outline-2</title><g id="el_ydXnI5Y_b2_rklzdeLRT" data-animator-group="true" data-animator-type="2"><path d="M101.6,45.44A38.11,38.11,0,1,0,29.49,64.21h0l.11.21c.48.93,1,1.81,1.52,2.69L46.9,95.21,58.09,115A6.27,6.27,0,0,0,69,115L80.2,95.21,96,67.13c.55-.88,1-1.78,1.52-2.68l.12-.22h0A37.6,37.6,0,0,0,101.6,45.44ZM55.66,80.67a3.4,3.4,0,1,1,3.42-3.37h0A3.38,3.38,0,0,1,55.66,80.67Zm9.74.07a3.41,3.41,0,1,1,3.42-3.4,3.43,3.43,0,0,1-3.42,3.4ZM89.89,46.8v.33a.86.86,0,0,1,0,.24l0,.07-.07.28v0a1.51,1.51,0,0,1-.12.31h0c0,.11-.12.26-.19.38L76.31,70.81a3.39,3.39,0,0,1-3.12,2L48,72.62a3.41,3.41,0,1,1-.12-6.82H48L71.25,66,80.56,50.1l-35.87-.24a3.6,3.6,0,0,1-3-1.8l-3.85-6.7a3.42,3.42,0,1,1,5.82-3.59l.12.19L46.64,43l39.83.26h0a.51.51,0,0,1,.21,0h.1a1.32,1.32,0,0,1,.31.05h0a3.57,3.57,0,0,1,1,.38,3.37,3.37,0,0,1,1.29,1.33,0,0,0,0,0,0,0,1.78,1.78,0,0,1,.12.24l0,.09c0,.05,0,.12.07.19s0,.1,0,.17,0,.09,0,.14a.87.87,0,0,1,.05.19c0,.07,0,.1,0,.14s0,.12,0,.19v.29S89.89,46.8,89.89,46.8Z" id="el_ydXnI5Y_b2"/></g><script>(function(){var a=document.querySelector('#el_uH6fgikFKT'),b=a.querySelectorAll('style'),c=function(d){b.forEach(function(f){var g=f.textContent;g&amp;&amp;(f.textContent=g.replace(/transform-box:[^;\r\n]*/gi,'transform-box: '+d))})};c('initial'),window.requestAnimationFrame(function(){return c('fill-box')})})();</script></svg>